<svg width="100" height="96" viewBox="0 0 100 96" fill="none" xmlns="http://www.w3.org/2000/svg"><path d="M98.785 52.8019L74.8592 39.7882C74.2772 39.4716 73.5749 39.4716 72.9926 39.7882L63.0209 46.8931L50.0002 52.2943L38.8674 48L27.0077 39.7882C26.4256 39.4716 25.7233 39.4716 25.1411 39.7882L1.21528 52.8019C0.568988 53.1546 0.190668 53.8334 0.195356 54.5294V80.5449C0.195356 81.2605 0.586762 81.9187 1.21528 82.2605L25.1364 95.2716C25.7237 95.5939 26.4442 95.5835 27.0123 95.2716L50.0002 82.7681L72.9879 95.2716C73.5709 95.5916 74.2918 95.5857 74.8639 95.2716L98.785 82.2605C99.4135 81.9187 99.8049 81.2605 99.8049 80.5449V54.5292C99.8096 53.8369 99.4293 53.1523 98.785 52.8019ZM24.1213 90.2728L4.1018 79.3837V57.4601L24.1213 65.8976V90.2728ZM26.0745 62.482L6.64711 54.2939L26.0745 43.7273L37.4352 48L45.5018 54.2941L26.0745 62.482ZM48.0471 79.3839L28.0276 90.2728V65.8978L48.0471 57.4603V79.3839ZM71.9729 90.2728L51.9534 79.3837V57.4601L71.9729 65.8976V90.2728ZM73.926 62.482L54.4987 54.2939L63.4768 47.4791L73.926 43.7273L93.3534 54.2941L73.926 62.482ZM95.8987 79.3837L75.8791 90.2726V65.8976L95.8987 57.4601V79.3837Z" fill="#0055ff"></path><path d="M74.8631 13.7394L50.9374 0.725732C50.3553 0.409131 49.653 0.409131 49.0707 0.725732L25.145 13.7394C24.5 14.0912 24.1204 14.7734 24.125 15.4669V41.4824C24.125 42.198 24.5164 42.8562 25.145 43.198C50.6862 57.0839 49.1217 56.2789 49.4944 56.3796C50.0098 56.5193 50.5299 56.4353 50.942 56.2091L74.8631 43.198C75.4916 42.8562 75.883 42.198 75.883 41.4824V15.4667C75.8877 14.7791 75.51 14.0906 74.8631 13.7394ZM48.051 51.2103L28.0315 40.3214V18.3976L48.051 26.8351V51.2103ZM50.0041 23.4195L30.5768 15.2314L50.0041 4.66479L69.4315 15.2316L50.0041 23.4195ZM71.9768 40.3212L51.9573 51.2103V26.8353L71.9768 18.3978V40.3212Z" fill="#0055ff"></path></svg>